<svg width="391" height="316" viewBox="0 0 391 316" fill="none" xmlns="http://www.w3.org/2000/svg">
  <g filter="url(#filter0_d)">
    <rect x="28" y="24" width="335" height="260" rx="6" fill="white"/>
  </g>
  <path d="M363 252L363 278C363 281.314 360.314 284 357 284L34 284C30.6863 284 28 281.314 28 278L28 252L363 252Z" fill="#534CEA"/>
  <path d="M113.962 264.168H115.381L115.381 272H113.962L113.962 264.168ZM126.912 264.168L126.912 272H125.658L125.658 267.138L123.579 272H122.644L120.554 267.193L120.554 272H119.3L119.3 264.168H120.422L123.117 270.295L125.79 264.168H126.912ZM130.823 264.168H134.222C135.066 264.168 135.722 264.373 136.191 264.784C136.661 265.187 136.895 265.741 136.895 266.445C136.895 267.149 136.657 267.706 136.18 268.117C135.711 268.528 135.058 268.733 134.222 268.733H132.242V272H130.823L130.823 264.168ZM134.057 267.633C134.549 267.633 134.919 267.534 135.168 267.336C135.425 267.131 135.553 266.837 135.553 266.456C135.553 266.067 135.429 265.774 135.179 265.576C134.93 265.371 134.556 265.268 134.057 265.268H132.242V267.633H134.057ZM146.796 272H145.3L144.299 269.393C144.211 269.151 144.075 268.982 143.892 268.887C143.708 268.792 143.47 268.744 143.177 268.744H141.758V272H140.35L140.35 264.168H143.705C144.592 264.168 145.267 264.362 145.729 264.751C146.191 265.14 146.422 265.697 146.422 266.423C146.422 266.944 146.282 267.387 146.004 267.754C145.732 268.113 145.344 268.37 144.838 268.524C145.3 268.619 145.633 268.942 145.839 269.492L146.796 272ZM143.507 267.644C144.042 267.644 144.438 267.545 144.695 267.347C144.951 267.149 145.08 266.848 145.08 266.445C145.08 266.049 144.951 265.756 144.695 265.565C144.445 265.367 144.049 265.268 143.507 265.268H141.736V267.644H143.507ZM153.695 272.099C152.94 272.099 152.28 271.938 151.715 271.615C151.158 271.285 150.725 270.819 150.417 270.218C150.117 269.609 149.966 268.894 149.966 268.073C149.966 267.259 150.117 266.551 150.417 265.95C150.718 265.341 151.147 264.876 151.704 264.553C152.269 264.23 152.933 264.069 153.695 264.069C154.458 264.069 155.118 264.23 155.675 264.553C156.24 264.876 156.669 265.341 156.962 265.95C157.263 266.551 157.413 267.259 157.413 268.073C157.413 268.894 157.263 269.609 156.962 270.218C156.662 270.819 156.233 271.285 155.675 271.615C155.118 271.938 154.458 272.099 153.695 272.099ZM153.695 270.966C154.421 270.966 154.986 270.717 155.389 270.218C155.793 269.719 155.994 269.004 155.994 268.073C155.994 267.149 155.793 266.441 155.389 265.95C154.986 265.451 154.421 265.202 153.695 265.202C152.969 265.202 152.405 265.448 152.001 265.939C151.598 266.43 151.396 267.142 151.396 268.073C151.396 269.004 151.598 269.719 152.001 270.218C152.405 270.717 152.969 270.966 153.695 270.966ZM168.046 264.168L164.559 272H163.404L159.917 264.168H161.391L163.998 270.218L166.605 264.168H168.046ZM170.991 264.168H176.227V265.29H172.377V267.457H175.996V268.579H172.377L172.377 270.878H176.227V272H170.991L170.991 264.168ZM188.504 272.099C187.734 272.099 187.059 271.934 186.48 271.604C185.908 271.274 185.468 270.808 185.16 270.207C184.852 269.598 184.698 268.887 184.698 268.073C184.698 267.266 184.852 266.562 185.16 265.961C185.468 265.352 185.908 264.887 186.48 264.564C187.059 264.234 187.734 264.069 188.504 264.069C189.032 264.069 189.527 264.153 189.989 264.322C190.458 264.483 190.847 264.711 191.155 265.004L190.693 266.038C190.341 265.752 189.989 265.547 189.637 265.422C189.292 265.29 188.922 265.224 188.526 265.224C187.771 265.224 187.184 265.47 186.766 265.961C186.355 266.452 186.15 267.156 186.15 268.073C186.15 268.997 186.355 269.708 186.766 270.207C187.177 270.698 187.763 270.944 188.526 270.944C188.922 270.944 189.292 270.882 189.637 270.757C189.989 270.625 190.341 270.416 190.693 270.13L191.155 271.164C190.847 271.457 190.458 271.688 189.989 271.857C189.527 272.018 189.032 272.099 188.504 272.099ZM198.007 272.099C197.252 272.099 196.592 271.938 196.027 271.615C195.47 271.285 195.037 270.819 194.729 270.218C194.428 269.609 194.278 268.894 194.278 268.073C194.278 267.259 194.428 266.551 194.729 265.95C195.03 265.341 195.459 264.876 196.016 264.553C196.581 264.23 197.244 264.069 198.007 264.069C198.77 264.069 199.43 264.23 199.987 264.553C200.552 264.876 200.981 265.341 201.274 265.95C201.575 266.551 201.725 267.259 201.725 268.073C201.725 268.894 201.575 269.609 201.274 270.218C200.973 270.819 200.544 271.285 199.987 271.615C199.43 271.938 198.77 272.099 198.007 272.099ZM198.007 270.966C198.733 270.966 199.298 270.717 199.701 270.218C200.104 269.719 200.306 269.004 200.306 268.073C200.306 267.149 200.104 266.441 199.701 265.95C199.298 265.451 198.733 265.202 198.007 265.202C197.281 265.202 196.716 265.448 196.313 265.939C195.91 266.43 195.708 267.142 195.708 268.073C195.708 269.004 195.91 269.719 196.313 270.218C196.716 270.717 197.281 270.966 198.007 270.966ZM213.012 264.168L213.012 272H211.758L211.758 267.138L209.679 272H208.744L206.654 267.193L206.654 272H205.4L205.4 264.168H206.522L209.217 270.295L211.89 264.168H213.012ZM216.924 264.168H220.323C221.166 264.168 221.823 264.373 222.292 264.784C222.761 265.187 222.996 265.741 222.996 266.445C222.996 267.149 222.758 267.706 222.281 268.117C221.812 268.528 221.159 268.733 220.323 268.733H218.343L218.343 272H216.924L216.924 264.168ZM220.158 267.633C220.649 267.633 221.02 267.534 221.269 267.336C221.526 267.131 221.654 266.837 221.654 266.456C221.654 266.067 221.529 265.774 221.28 265.576C221.031 265.371 220.657 265.268 220.158 265.268H218.343V267.633H220.158ZM230.815 270.163H226.987L226.195 272H224.765L228.307 264.168H229.462L233.015 272H231.596L230.815 270.163ZM230.342 269.063L228.901 265.708L227.46 269.063H230.342ZM242.508 272H241.012L240.011 269.393C239.923 269.151 239.788 268.982 239.604 268.887C239.421 268.792 239.183 268.744 238.889 268.744H237.47L237.47 272H236.062L236.062 264.168H239.417C240.305 264.168 240.979 264.362 241.441 264.751C241.903 265.14 242.134 265.697 242.134 266.423C242.134 266.944 241.995 267.387 241.716 267.754C241.445 268.113 241.056 268.37 240.55 268.524C241.012 268.619 241.346 268.942 241.551 269.492L242.508 272ZM239.219 267.644C239.755 267.644 240.151 267.545 240.407 267.347C240.664 267.149 240.792 266.848 240.792 266.445C240.792 266.049 240.664 265.756 240.407 265.565C240.158 265.367 239.762 265.268 239.219 265.268H237.448V267.644H239.219ZM245.986 264.168H247.405L247.405 272H245.986L245.986 264.168ZM253.952 272.099C253.351 272.099 252.786 272.018 252.258 271.857C251.738 271.696 251.294 271.465 250.927 271.164L251.411 270.13C251.793 270.416 252.189 270.629 252.599 270.768C253.017 270.9 253.472 270.966 253.963 270.966C254.506 270.966 254.924 270.871 255.217 270.68C255.518 270.489 255.668 270.222 255.668 269.877C255.668 269.584 255.529 269.36 255.25 269.206C254.979 269.045 254.528 268.894 253.897 268.755C252.915 268.542 252.2 268.267 251.752 267.93C251.305 267.593 251.081 267.101 251.081 266.456C251.081 265.994 251.206 265.583 251.455 265.224C251.705 264.865 252.057 264.582 252.511 264.377C252.973 264.172 253.505 264.069 254.106 264.069C254.656 264.069 255.177 264.153 255.668 264.322C256.167 264.483 256.574 264.711 256.889 265.004L256.416 266.038C255.72 265.481 254.95 265.202 254.106 265.202C253.6 265.202 253.201 265.308 252.907 265.521C252.614 265.726 252.467 266.009 252.467 266.368C252.467 266.676 252.596 266.911 252.852 267.072C253.116 267.233 253.564 267.384 254.194 267.523C254.847 267.677 255.379 267.846 255.789 268.029C256.2 268.205 256.515 268.436 256.735 268.722C256.955 269.001 257.065 269.353 257.065 269.778C257.065 270.247 256.941 270.658 256.691 271.01C256.442 271.355 256.083 271.622 255.613 271.813C255.144 272.004 254.59 272.099 253.952 272.099ZM264.056 272.099C263.301 272.099 262.641 271.938 262.076 271.615C261.519 271.285 261.086 270.819 260.778 270.218C260.478 269.609 260.327 268.894 260.327 268.073C260.327 267.259 260.478 266.551 260.778 265.95C261.079 265.341 261.508 264.876 262.065 264.553C262.63 264.23 263.294 264.069 264.056 264.069C264.819 264.069 265.479 264.23 266.036 264.553C266.601 264.876 267.03 265.341 267.323 265.95C267.624 266.551 267.774 267.259 267.774 268.073C267.774 268.894 267.624 269.609 267.323 270.218C267.023 270.819 266.594 271.285 266.036 271.615C265.479 271.938 264.819 272.099 264.056 272.099ZM264.056 270.966C264.782 270.966 265.347 270.717 265.75 270.218C266.154 269.719 266.355 269.004 266.355 268.073C266.355 267.149 266.154 266.441 265.75 265.95C265.347 265.451 264.782 265.202 264.056 265.202C263.33 265.202 262.766 265.448 262.362 265.939C261.959 266.43 261.757 267.142 261.757 268.073C261.757 269.004 261.959 269.719 262.362 270.218C262.766 270.717 263.33 270.966 264.056 270.966ZM278.028 264.168V272H276.972L272.748 266.511V272H271.428V264.168H272.484L276.697 269.646V264.168H278.028Z" fill="white"/>
  <path d="M219.272 212.192C218.088 212.192 216.968 212 215.912 211.616C214.872 211.216 213.968 210.64 213.2 209.888L213.8 208.712C214.664 209.48 215.528 210.032 216.392 210.368C217.256 210.704 218.216 210.872 219.272 210.872C220.632 210.872 221.688 210.576 222.44 209.984C223.208 209.376 223.592 208.544 223.592 207.488C223.592 206.832 223.408 206.32 223.04 205.952C222.688 205.568 222.208 205.264 221.6 205.04C221.008 204.816 220.352 204.624 219.632 204.464C218.928 204.288 218.216 204.096 217.496 203.888C216.776 203.68 216.112 203.408 215.504 203.072C214.912 202.736 214.432 202.288 214.064 201.728C213.712 201.168 213.536 200.44 213.536 199.544C213.536 198.6 213.784 197.768 214.28 197.048C214.776 196.312 215.464 195.744 216.344 195.344C217.224 194.928 218.224 194.72 219.344 194.72C220.064 194.72 220.76 194.808 221.432 194.984C222.12 195.16 222.76 195.416 223.352 195.752C223.96 196.072 224.496 196.472 224.96 196.952L224.36 198.128C222.984 196.736 221.312 196.04 219.344 196.04C218.016 196.04 216.968 196.352 216.2 196.976C215.432 197.6 215.048 198.448 215.048 199.52C215.048 200.24 215.224 200.808 215.576 201.224C215.944 201.64 216.432 201.976 217.04 202.232C217.648 202.472 218.304 202.68 219.008 202.856C219.728 203.032 220.44 203.216 221.144 203.408C221.864 203.6 222.52 203.856 223.112 204.176C223.72 204.48 224.2 204.896 224.552 205.424C224.92 205.952 225.104 206.632 225.104 207.464C225.104 208.408 224.856 209.232 224.36 209.936C223.864 210.64 223.176 211.192 222.296 211.592C221.416 211.992 220.408 212.192 219.272 212.192ZM218.768 214.784V211.928L218.792 211.184V195.632L218.768 194.984V192.128H220.112V194.984L220.088 195.632V211.184L220.112 211.928V214.784H218.768ZM233.975 212.168C232.951 212.168 231.943 211.976 230.951 211.592C229.959 211.208 229.111 210.672 228.407 209.984L229.031 208.808C229.815 209.48 230.615 209.992 231.431 210.344C232.247 210.696 233.095 210.872 233.975 210.872C235.223 210.872 236.207 210.504 236.927 209.768C237.663 209.016 238.031 208.016 238.031 206.768C238.031 205.968 237.871 205.264 237.551 204.656C237.231 204.032 236.775 203.552 236.183 203.216C235.607 202.864 234.919 202.688 234.119 202.688C233.223 202.688 232.439 202.872 231.767 203.24C231.095 203.592 230.511 204.144 230.015 204.896H228.863V194.912H238.895V196.184H230.351V203.696L229.871 203.624C230.319 202.92 230.919 202.368 231.671 201.968C232.423 201.568 233.271 201.368 234.215 201.368C235.319 201.368 236.263 201.6 237.047 202.064C237.847 202.512 238.455 203.144 238.871 203.96C239.303 204.776 239.519 205.712 239.519 206.768C239.519 207.824 239.295 208.76 238.847 209.576C238.399 210.392 237.759 211.032 236.927 211.496C236.095 211.944 235.111 212.168 233.975 212.168ZM247.885 212.168C246.797 212.168 245.757 211.976 244.765 211.592C243.773 211.208 242.925 210.672 242.221 209.984L242.845 208.808C243.629 209.496 244.429 210.016 245.245 210.368C246.077 210.704 246.957 210.872 247.885 210.872C249.133 210.872 250.093 210.576 250.765 209.984C251.453 209.376 251.797 208.512 251.797 207.392C251.797 206.24 251.437 205.384 250.717 204.824C250.013 204.248 248.973 203.96 247.597 203.96H245.749V202.664H247.213C248.557 202.664 249.589 202.352 250.309 201.728C251.045 201.104 251.413 200.224 251.413 199.088C251.413 198.112 251.117 197.36 250.525 196.832C249.933 196.288 249.101 196.016 248.029 196.016C247.149 196.016 246.309 196.192 245.509 196.544C244.709 196.88 243.909 197.392 243.109 198.08L242.485 196.904C243.173 196.216 244.005 195.68 244.981 195.296C245.973 194.912 246.997 194.72 248.053 194.72C249.045 194.72 249.909 194.896 250.645 195.248C251.381 195.6 251.941 196.104 252.325 196.76C252.725 197.4 252.925 198.168 252.925 199.064C252.909 200.12 252.621 201.032 252.061 201.8C251.517 202.568 250.765 203.08 249.805 203.336L249.709 203.096C250.877 203.336 251.765 203.824 252.373 204.56C252.981 205.28 253.285 206.224 253.285 207.392C253.285 208.864 252.797 210.032 251.821 210.896C250.845 211.744 249.533 212.168 247.885 212.168ZM262.756 212.168C261.732 212.168 260.724 211.976 259.732 211.592C258.74 211.208 257.892 210.672 257.188 209.984L257.812 208.808C258.596 209.48 259.396 209.992 260.212 210.344C261.028 210.696 261.876 210.872 262.756 210.872C264.004 210.872 264.988 210.504 265.708 209.768C266.444 209.016 266.812 208.016 266.812 206.768C266.812 205.968 266.652 205.264 266.332 204.656C266.012 204.032 265.556 203.552 264.964 203.216C264.388 202.864 263.7 202.688 262.9 202.688C262.004 202.688 261.22 202.872 260.548 203.24C259.876 203.592 259.292 204.144 258.796 204.896H257.644V194.912H267.676V196.184H259.132V203.696L258.652 203.624C259.1 202.92 259.7 202.368 260.452 201.968C261.204 201.568 262.052 201.368 262.996 201.368C264.1 201.368 265.044 201.6 265.828 202.064C266.628 202.512 267.236 203.144 267.652 203.96C268.084 204.776 268.3 205.712 268.3 206.768C268.3 207.824 268.076 208.76 267.628 209.576C267.18 210.392 266.54 211.032 265.708 211.496C264.876 211.944 263.892 212.168 262.756 212.168ZM271.987 214.568L271.243 213.968C271.627 213.536 271.875 213.144 271.987 212.792C272.099 212.456 272.155 212.104 272.155 211.736L272.659 212H271.219V209.912H273.259V211.472C273.259 212.032 273.163 212.568 272.971 213.08C272.795 213.592 272.467 214.088 271.987 214.568ZM282.083 212.192C280.163 212.192 278.707 211.456 277.715 209.984C276.723 208.496 276.227 206.32 276.227 203.456C276.227 200.576 276.715 198.4 277.691 196.928C278.683 195.456 280.147 194.72 282.083 194.72C284.019 194.72 285.475 195.456 286.451 196.928C287.443 198.4 287.939 200.568 287.939 203.432C287.939 206.296 287.443 208.472 286.451 209.96C285.459 211.448 284.003 212.192 282.083 212.192ZM282.083 210.872C283.555 210.872 284.643 210.272 285.347 209.072C286.067 207.856 286.427 205.976 286.427 203.432C286.427 200.888 286.075 199.024 285.371 197.84C284.667 196.64 283.571 196.04 282.083 196.04C280.611 196.04 279.515 196.64 278.795 197.84C278.091 199.04 277.739 200.904 277.739 203.432C277.739 205.96 278.091 207.832 278.795 209.048C279.515 210.264 280.611 210.872 282.083 210.872ZM296.473 212.192C294.553 212.192 293.097 211.456 292.105 209.984C291.113 208.496 290.617 206.32 290.617 203.456C290.617 200.576 291.105 198.4 292.081 196.928C293.073 195.456 294.537 194.72 296.473 194.72C298.409 194.72 299.865 195.456 300.841 196.928C301.833 198.4 302.329 200.568 302.329 203.432C302.329 206.296 301.833 208.472 300.841 209.96C299.849 211.448 298.393 212.192 296.473 212.192ZM296.473 210.872C297.945 210.872 299.033 210.272 299.737 209.072C300.457 207.856 300.817 205.976 300.817 203.432C300.817 200.888 300.465 199.024 299.761 197.84C299.057 196.64 297.961 196.04 296.473 196.04C295.001 196.04 293.905 196.64 293.185 197.84C292.481 199.04 292.129 200.904 292.129 203.432C292.129 205.96 292.481 207.832 293.185 209.048C293.905 210.264 295.001 210.872 296.473 210.872ZM310.864 212.192C308.944 212.192 307.488 211.456 306.496 209.984C305.504 208.496 305.008 206.32 305.008 203.456C305.008 200.576 305.496 198.4 306.472 196.928C307.464 195.456 308.928 194.72 310.864 194.72C312.8 194.72 314.256 195.456 315.232 196.928C316.224 198.4 316.72 200.568 316.72 203.432C316.72 206.296 316.224 208.472 315.232 209.96C314.24 211.448 312.784 212.192 310.864 212.192ZM310.864 210.872C312.336 210.872 313.424 210.272 314.128 209.072C314.848 207.856 315.208 205.976 315.208 203.432C315.208 200.888 314.856 199.024 314.152 197.84C313.448 196.64 312.352 196.04 310.864 196.04C309.392 196.04 308.296 196.64 307.576 197.84C306.872 199.04 306.52 200.904 306.52 203.432C306.52 205.96 306.872 207.832 307.576 209.048C308.296 210.264 309.392 210.872 310.864 210.872Z" fill="#534CEA"/>
  <path d="M213.204 184V174.032H214.184L220.4 182.278L220.05 182.376V174.032H221.282V184H220.288L214.086 175.768L214.408 175.656V184H213.204ZM229.361 183.174C229.053 183.463 228.656 183.692 228.171 183.86C227.685 184.019 227.191 184.098 226.687 184.098C225.949 184.098 225.315 183.953 224.783 183.664C224.251 183.375 223.84 182.959 223.551 182.418C223.261 181.867 223.117 181.214 223.117 180.458C223.117 179.73 223.257 179.091 223.537 178.54C223.826 177.989 224.223 177.56 224.727 177.252C225.231 176.935 225.809 176.776 226.463 176.776C227.097 176.776 227.639 176.916 228.087 177.196C228.544 177.476 228.889 177.877 229.123 178.4C229.365 178.913 229.487 179.529 229.487 180.248V180.472H224.237V179.688H228.759L228.367 180.192C228.385 179.399 228.231 178.792 227.905 178.372C227.578 177.952 227.102 177.742 226.477 177.742C225.823 177.742 225.31 177.975 224.937 178.442C224.573 178.899 224.391 179.543 224.391 180.374C224.391 181.27 224.587 181.947 224.979 182.404C225.371 182.852 225.949 183.076 226.715 183.076C227.125 183.076 227.517 183.011 227.891 182.88C228.264 182.74 228.619 182.535 228.955 182.264L229.361 183.174ZM230.145 177.938V176.958H234.765V177.938H230.145ZM234.737 182.894V183.958C234.578 184.005 234.415 184.037 234.247 184.056C234.088 184.084 233.916 184.098 233.729 184.098C233.038 184.098 232.492 183.902 232.091 183.51C231.699 183.118 231.503 182.539 231.503 181.774V175.166L232.777 174.718V181.634C232.777 181.998 232.828 182.283 232.931 182.488C233.043 182.684 233.188 182.824 233.365 182.908C233.552 182.983 233.762 183.02 233.995 183.02C234.126 183.02 234.247 183.011 234.359 182.992C234.471 182.973 234.597 182.941 234.737 182.894ZM242.676 184L239.176 174.032H240.506L243.474 182.838H243.012L246.078 174.032L247.058 174.046L250.054 182.838H249.606L252.63 174.032H253.89L250.404 184H249.312L246.386 175.614H246.694L243.754 184H242.676ZM257.581 184.098C256.899 184.098 256.302 183.949 255.789 183.65C255.285 183.351 254.893 182.931 254.613 182.39C254.333 181.839 254.193 181.191 254.193 180.444C254.193 179.707 254.333 179.063 254.613 178.512C254.893 177.952 255.285 177.523 255.789 177.224C256.302 176.925 256.899 176.776 257.581 176.776C258.271 176.776 258.869 176.925 259.373 177.224C259.877 177.523 260.269 177.952 260.549 178.512C260.829 179.063 260.969 179.707 260.969 180.444C260.969 181.191 260.829 181.839 260.549 182.39C260.269 182.931 259.877 183.351 259.373 183.65C258.869 183.949 258.271 184.098 257.581 184.098ZM257.581 183.062C258.253 183.062 258.771 182.843 259.135 182.404C259.499 181.956 259.681 181.303 259.681 180.444C259.681 179.595 259.494 178.946 259.121 178.498C258.757 178.05 258.243 177.826 257.581 177.826C256.927 177.826 256.414 178.05 256.041 178.498C255.667 178.946 255.481 179.595 255.481 180.444C255.481 181.303 255.663 181.956 256.027 182.404C256.391 182.843 256.909 183.062 257.581 183.062ZM262.693 184V178.932C262.693 178.605 262.684 178.279 262.665 177.952C262.656 177.616 262.628 177.285 262.581 176.958H263.785L263.939 178.708L263.785 178.652C263.906 178.036 264.182 177.574 264.611 177.266C265.05 176.949 265.54 176.79 266.081 176.79C266.212 176.79 266.328 176.799 266.431 176.818C266.543 176.827 266.646 176.846 266.739 176.874L266.725 178.036C266.492 177.952 266.23 177.91 265.941 177.91C265.465 177.91 265.082 178.013 264.793 178.218C264.504 178.423 264.294 178.685 264.163 179.002C264.032 179.319 263.967 179.66 263.967 180.024V184H262.693ZM267.469 177.938V176.958H272.089V177.938H267.469ZM272.061 182.894V183.958C271.902 184.005 271.739 184.037 271.571 184.056C271.412 184.084 271.24 184.098 271.053 184.098C270.362 184.098 269.816 183.902 269.415 183.51C269.023 183.118 268.827 182.539 268.827 181.774V175.166L270.101 174.718V181.634C270.101 181.998 270.152 182.283 270.255 182.488C270.367 182.684 270.512 182.824 270.689 182.908C270.876 182.983 271.086 183.02 271.319 183.02C271.45 183.02 271.571 183.011 271.683 182.992C271.795 182.973 271.921 182.941 272.061 182.894ZM273.439 184V173.696H274.713V178.386L274.517 178.484C274.722 177.933 275.049 177.513 275.497 177.224C275.954 176.925 276.477 176.776 277.065 176.776C278.754 176.776 279.599 177.714 279.599 179.59V184H278.325V179.66C278.325 179.025 278.199 178.563 277.947 178.274C277.704 177.975 277.312 177.826 276.771 177.826C276.146 177.826 275.646 178.022 275.273 178.414C274.9 178.797 274.713 179.315 274.713 179.968V184H273.439Z" fill="#534CEA"/>
  <path d="M55.272 212.192C54.088 212.192 52.968 212 51.912 211.616C50.872 211.216 49.968 210.64 49.2 209.888L49.8 208.712C50.664 209.48 51.528 210.032 52.392 210.368C53.256 210.704 54.216 210.872 55.272 210.872C56.632 210.872 57.688 210.576 58.44 209.984C59.208 209.376 59.592 208.544 59.592 207.488C59.592 206.832 59.408 206.32 59.04 205.952C58.688 205.568 58.208 205.264 57.6 205.04C57.008 204.816 56.352 204.624 55.632 204.464C54.928 204.288 54.216 204.096 53.496 203.888C52.776 203.68 52.112 203.408 51.504 203.072C50.912 202.736 50.432 202.288 50.064 201.728C49.712 201.168 49.536 200.44 49.536 199.544C49.536 198.6 49.784 197.768 50.28 197.048C50.776 196.312 51.464 195.744 52.344 195.344C53.224 194.928 54.224 194.72 55.344 194.72C56.064 194.72 56.76 194.808 57.432 194.984C58.12 195.16 58.76 195.416 59.352 195.752C59.96 196.072 60.496 196.472 60.96 196.952L60.36 198.128C58.984 196.736 57.312 196.04 55.344 196.04C54.016 196.04 52.968 196.352 52.2 196.976C51.432 197.6 51.048 198.448 51.048 199.52C51.048 200.24 51.224 200.808 51.576 201.224C51.944 201.64 52.432 201.976 53.04 202.232C53.648 202.472 54.304 202.68 55.008 202.856C55.728 203.032 56.44 203.216 57.144 203.408C57.864 203.6 58.52 203.856 59.112 204.176C59.72 204.48 60.2 204.896 60.552 205.424C60.92 205.952 61.104 206.632 61.104 207.464C61.104 208.408 60.856 209.232 60.36 209.936C59.864 210.64 59.176 211.192 58.296 211.592C57.416 211.992 56.408 212.192 55.272 212.192ZM54.768 214.784V211.928L54.792 211.184V195.632L54.768 194.984V192.128H56.112V194.984L56.088 195.632V211.184L56.112 211.928V214.784H54.768ZM69.4226 211.352V195.536L70.3826 196.256L65.8946 199.16V197.648L70.0706 194.912H70.9106V211.352H69.4226ZM65.6306 212V210.728H74.7026V212H65.6306ZM79.2053 214.568L78.4613 213.968C78.8453 213.536 79.0933 213.144 79.2053 212.792C79.3173 212.456 79.3733 212.104 79.3733 211.736L79.8773 212H78.4373V209.912H80.4773V211.472C80.4773 212.032 80.3813 212.568 80.1893 213.08C80.0133 213.592 79.6853 214.088 79.2053 214.568ZM89.6856 212.168C88.6616 212.168 87.6536 211.976 86.6616 211.592C85.6696 211.208 84.8216 210.672 84.1176 209.984L84.7416 208.808C85.5256 209.48 86.3256 209.992 87.1416 210.344C87.9576 210.696 88.8056 210.872 89.6856 210.872C90.9336 210.872 91.9176 210.504 92.6376 209.768C93.3736 209.016 93.7416 208.016 93.7416 206.768C93.7416 205.968 93.5816 205.264 93.2616 204.656C92.9416 204.032 92.4856 203.552 91.8936 203.216C91.3176 202.864 90.6296 202.688 89.8296 202.688C88.9336 202.688 88.1496 202.872 87.4776 203.24C86.8056 203.592 86.2216 204.144 85.7256 204.896H84.5736V194.912H94.6056V196.184H86.0616V203.696L85.5816 203.624C86.0296 202.92 86.6296 202.368 87.3816 201.968C88.1336 201.568 88.9816 201.368 89.9256 201.368C91.0296 201.368 91.9736 201.6 92.7576 202.064C93.5576 202.512 94.1656 203.144 94.5816 203.96C95.0136 204.776 95.2296 205.712 95.2296 206.768C95.2296 207.824 95.0056 208.76 94.5576 209.576C94.1096 210.392 93.4696 211.032 92.6376 211.496C91.8056 211.944 90.8216 212.168 89.6856 212.168ZM103.692 212.192C101.772 212.192 100.316 211.456 99.3242 209.984C98.3322 208.496 97.8362 206.32 97.8362 203.456C97.8362 200.576 98.3242 198.4 99.3002 196.928C100.292 195.456 101.756 194.72 103.692 194.72C105.628 194.72 107.084 195.456 108.06 196.928C109.052 198.4 109.548 200.568 109.548 203.432C109.548 206.296 109.052 208.472 108.06 209.96C107.068 211.448 105.612 212.192 103.692 212.192ZM103.692 210.872C105.164 210.872 106.252 210.272 106.956 209.072C107.676 207.856 108.036 205.976 108.036 203.432C108.036 200.888 107.684 199.024 106.98 197.84C106.276 196.64 105.18 196.04 103.692 196.04C102.22 196.04 101.124 196.64 100.404 197.84C99.7002 199.04 99.3482 200.904 99.3482 203.432C99.3482 205.96 99.7002 207.832 100.404 209.048C101.124 210.264 102.22 210.872 103.692 210.872ZM118.467 212.168C117.443 212.168 116.435 211.976 115.443 211.592C114.451 211.208 113.603 210.672 112.899 209.984L113.523 208.808C114.307 209.48 115.107 209.992 115.923 210.344C116.739 210.696 117.587 210.872 118.467 210.872C119.715 210.872 120.699 210.504 121.419 209.768C122.155 209.016 122.523 208.016 122.523 206.768C122.523 205.968 122.363 205.264 122.043 204.656C121.723 204.032 121.267 203.552 120.675 203.216C120.099 202.864 119.411 202.688 118.611 202.688C117.715 202.688 116.931 202.872 116.259 203.24C115.587 203.592 115.003 204.144 114.507 204.896H113.355V194.912H123.387V196.184H114.843V203.696L114.363 203.624C114.811 202.92 115.411 202.368 116.163 201.968C116.915 201.568 117.763 201.368 118.707 201.368C119.811 201.368 120.755 201.6 121.539 202.064C122.339 202.512 122.947 203.144 123.363 203.96C123.795 204.776 124.011 205.712 124.011 206.768C124.011 207.824 123.787 208.76 123.339 209.576C122.891 210.392 122.251 211.032 121.419 211.496C120.587 211.944 119.603 212.168 118.467 212.168ZM127.697 214.568L126.953 213.968C127.337 213.536 127.585 213.144 127.697 212.792C127.809 212.456 127.865 212.104 127.865 211.736L128.369 212H126.929V209.912H128.969V211.472C128.969 212.032 128.873 212.568 128.681 213.08C128.505 213.592 128.177 214.088 127.697 214.568ZM137.794 212.192C135.874 212.192 134.418 211.456 133.426 209.984C132.434 208.496 131.938 206.32 131.938 203.456C131.938 200.576 132.426 198.4 133.402 196.928C134.394 195.456 135.858 194.72 137.794 194.72C139.73 194.72 141.186 195.456 142.162 196.928C143.154 198.4 143.65 200.568 143.65 203.432C143.65 206.296 143.154 208.472 142.162 209.96C141.17 211.448 139.714 212.192 137.794 212.192ZM137.794 210.872C139.266 210.872 140.354 210.272 141.058 209.072C141.778 207.856 142.138 205.976 142.138 203.432C142.138 200.888 141.786 199.024 141.082 197.84C140.378 196.64 139.282 196.04 137.794 196.04C136.322 196.04 135.226 196.64 134.506 197.84C133.802 199.04 133.45 200.904 133.45 203.432C133.45 205.96 133.802 207.832 134.506 209.048C135.226 210.264 136.322 210.872 137.794 210.872ZM152.184 212.192C150.264 212.192 148.808 211.456 147.816 209.984C146.824 208.496 146.328 206.32 146.328 203.456C146.328 200.576 146.816 198.4 147.792 196.928C148.784 195.456 150.248 194.72 152.184 194.72C154.12 194.72 155.576 195.456 156.552 196.928C157.544 198.4 158.04 200.568 158.04 203.432C158.04 206.296 157.544 208.472 156.552 209.96C155.56 211.448 154.104 212.192 152.184 212.192ZM152.184 210.872C153.656 210.872 154.744 210.272 155.448 209.072C156.168 207.856 156.528 205.976 156.528 203.432C156.528 200.888 156.176 199.024 155.472 197.84C154.768 196.64 153.672 196.04 152.184 196.04C150.712 196.04 149.616 196.64 148.896 197.84C148.192 199.04 147.84 200.904 147.84 203.432C147.84 205.96 148.192 207.832 148.896 209.048C149.616 210.264 150.712 210.872 152.184 210.872ZM166.575 212.192C164.655 212.192 163.199 211.456 162.207 209.984C161.215 208.496 160.719 206.32 160.719 203.456C160.719 200.576 161.207 198.4 162.183 196.928C163.175 195.456 164.639 194.72 166.575 194.72C168.511 194.72 169.967 195.456 170.943 196.928C171.935 198.4 172.431 200.568 172.431 203.432C172.431 206.296 171.935 208.472 170.943 209.96C169.951 211.448 168.495 212.192 166.575 212.192ZM166.575 210.872C168.047 210.872 169.135 210.272 169.839 209.072C170.559 207.856 170.919 205.976 170.919 203.432C170.919 200.888 170.567 199.024 169.863 197.84C169.159 196.64 168.063 196.04 166.575 196.04C165.103 196.04 164.007 196.64 163.287 197.84C162.583 199.04 162.231 200.904 162.231 203.432C162.231 205.96 162.583 207.832 163.287 209.048C164.007 210.264 165.103 210.872 166.575 210.872Z" fill="#D3365F"/>
  <path d="M49.204 184V174.032H50.492V182.908H55.42V184H49.204ZM56.7339 184V176.958H58.0079V184H56.7339ZM56.6219 173.92H58.1199V175.306H56.6219V173.92ZM62.8402 184.098C62.2242 184.098 61.6782 183.953 61.2022 183.664C60.7356 183.365 60.3716 182.945 60.1102 182.404C59.8489 181.853 59.7182 181.209 59.7182 180.472C59.7182 179.735 59.8489 179.091 60.1102 178.54C60.3809 177.989 60.7496 177.56 61.2162 177.252C61.6922 176.935 62.2336 176.776 62.8402 176.776C63.4749 176.776 64.0162 176.935 64.4642 177.252C64.9122 177.56 65.2156 178.003 65.3742 178.582L65.2062 178.68V176.958H66.4662V184H65.2062V182.236L65.3742 182.306C65.2156 182.875 64.9122 183.319 64.4642 183.636C64.0162 183.944 63.4749 184.098 62.8402 184.098ZM63.1202 183.062C63.7922 183.062 64.3056 182.838 64.6602 182.39C65.0242 181.933 65.2062 181.284 65.2062 180.444C65.2062 179.604 65.0242 178.96 64.6602 178.512C64.2962 178.055 63.7829 177.826 63.1202 177.826C62.4576 177.826 61.9396 178.059 61.5662 178.526C61.1929 178.993 61.0062 179.641 61.0062 180.472C61.0062 181.303 61.1929 181.942 61.5662 182.39C61.9396 182.838 62.4576 183.062 63.1202 183.062ZM68.5874 184V173.696H69.8614V178.736L69.6934 178.568C69.8521 178.008 70.1554 177.569 70.6034 177.252C71.0514 176.935 71.5881 176.776 72.2134 176.776C72.8388 176.776 73.3848 176.925 73.8514 177.224C74.3181 177.523 74.6821 177.947 74.9434 178.498C75.2141 179.039 75.3494 179.679 75.3494 180.416C75.3494 181.153 75.2141 181.802 74.9434 182.362C74.6821 182.913 74.3134 183.342 73.8374 183.65C73.3708 183.949 72.8294 184.098 72.2134 184.098C71.5881 184.098 71.0514 183.944 70.6034 183.636C70.1554 183.319 69.8521 182.875 69.6934 182.306L69.8474 182.138V184H68.5874ZM71.9474 183.062C72.6101 183.062 73.1234 182.833 73.4874 182.376C73.8514 181.909 74.0334 181.256 74.0334 180.416C74.0334 179.595 73.8514 178.96 73.4874 178.512C73.1234 178.055 72.6101 177.826 71.9474 177.826C71.2754 177.826 70.7574 178.055 70.3934 178.512C70.0294 178.969 69.8474 179.613 69.8474 180.444C69.8474 181.284 70.0294 181.933 70.3934 182.39C70.7574 182.838 71.2754 183.062 71.9474 183.062ZM77.0367 184V176.958H78.3107V184H77.0367ZM76.9247 173.92H78.4227V175.306H76.9247V173.92ZM80.441 184V173.696H81.715V184H80.441ZM83.8453 184V176.958H85.1193V184H83.8453ZM83.7333 173.92H85.2313V175.306H83.7333V173.92ZM86.2835 177.938V176.958H90.9035V177.938H86.2835ZM90.8755 182.894V183.958C90.7169 184.005 90.5535 184.037 90.3855 184.056C90.2269 184.084 90.0542 184.098 89.8675 184.098C89.1769 184.098 88.6309 183.902 88.2295 183.51C87.8375 183.118 87.6415 182.539 87.6415 181.774V175.166L88.9155 174.718V181.634C88.9155 181.998 88.9669 182.283 89.0695 182.488C89.1815 182.684 89.3262 182.824 89.5035 182.908C89.6902 182.983 89.9002 183.02 90.1335 183.02C90.2642 183.02 90.3855 183.011 90.4975 182.992C90.6095 182.973 90.7355 182.941 90.8755 182.894ZM92.2535 184V176.958H93.5275V184H92.2535ZM92.1415 173.92H93.6395V175.306H92.1415V173.92ZM101.482 183.174C101.174 183.463 100.777 183.692 100.292 183.86C99.8064 184.019 99.3118 184.098 98.8078 184.098C98.0704 184.098 97.4358 183.953 96.9038 183.664C96.3718 183.375 95.9611 182.959 95.6718 182.418C95.3824 181.867 95.2378 181.214 95.2378 180.458C95.2378 179.73 95.3778 179.091 95.6578 178.54C95.9471 177.989 96.3438 177.56 96.8478 177.252C97.3518 176.935 97.9304 176.776 98.5838 176.776C99.2184 176.776 99.7598 176.916 100.208 177.196C100.665 177.476 101.01 177.877 101.244 178.4C101.486 178.913 101.608 179.529 101.608 180.248V180.472H96.3578V179.688H100.88L100.488 180.192C100.506 179.399 100.352 178.792 100.026 178.372C99.6991 177.952 99.2231 177.742 98.5978 177.742C97.9444 177.742 97.4311 177.975 97.0578 178.442C96.6938 178.899 96.5118 179.543 96.5118 180.374C96.5118 181.27 96.7078 181.947 97.0998 182.404C97.4918 182.852 98.0704 183.076 98.8358 183.076C99.2464 183.076 99.6384 183.011 100.012 182.88C100.385 182.74 100.74 182.535 101.076 182.264L101.482 183.174ZM105.709 184.098C104.505 184.098 103.548 183.795 102.839 183.188L103.245 182.264C103.618 182.553 104.005 182.768 104.407 182.908C104.817 183.039 105.265 183.104 105.751 183.104C106.255 183.104 106.637 183.02 106.899 182.852C107.169 182.675 107.305 182.423 107.305 182.096C107.305 181.835 107.211 181.629 107.025 181.48C106.847 181.321 106.549 181.191 106.129 181.088L104.953 180.808C104.346 180.677 103.879 180.444 103.553 180.108C103.235 179.772 103.077 179.366 103.077 178.89C103.077 178.479 103.189 178.115 103.413 177.798C103.646 177.481 103.968 177.233 104.379 177.056C104.789 176.869 105.275 176.776 105.835 176.776C106.329 176.776 106.796 176.855 107.235 177.014C107.683 177.173 108.061 177.401 108.369 177.7L107.963 178.61C107.627 178.33 107.281 178.125 106.927 177.994C106.572 177.854 106.203 177.784 105.821 177.784C105.345 177.784 104.971 177.877 104.701 178.064C104.439 178.251 104.309 178.503 104.309 178.82C104.309 179.091 104.393 179.305 104.561 179.464C104.729 179.623 104.995 179.749 105.359 179.842L106.549 180.136C107.221 180.276 107.715 180.509 108.033 180.836C108.35 181.153 108.509 181.564 108.509 182.068C108.509 182.684 108.257 183.179 107.753 183.552C107.249 183.916 106.567 184.098 105.709 184.098Z" fill="#D3365F"/>
  <path d="M219.272 140.192C218.088 140.192 216.968 140 215.912 139.616C214.872 139.216 213.968 138.64 213.2 137.888L213.8 136.712C214.664 137.48 215.528 138.032 216.392 138.368C217.256 138.704 218.216 138.872 219.272 138.872C220.632 138.872 221.688 138.576 222.44 137.984C223.208 137.376 223.592 136.544 223.592 135.488C223.592 134.832 223.408 134.32 223.04 133.952C222.688 133.568 222.208 133.264 221.6 133.04C221.008 132.816 220.352 132.624 219.632 132.464C218.928 132.288 218.216 132.096 217.496 131.888C216.776 131.68 216.112 131.408 215.504 131.072C214.912 130.736 214.432 130.288 214.064 129.728C213.712 129.168 213.536 128.44 213.536 127.544C213.536 126.6 213.784 125.768 214.28 125.048C214.776 124.312 215.464 123.744 216.344 123.344C217.224 122.928 218.224 122.72 219.344 122.72C220.064 122.72 220.76 122.808 221.432 122.984C222.12 123.16 222.76 123.416 223.352 123.752C223.96 124.072 224.496 124.472 224.96 124.952L224.36 126.128C222.984 124.736 221.312 124.04 219.344 124.04C218.016 124.04 216.968 124.352 216.2 124.976C215.432 125.6 215.048 126.448 215.048 127.52C215.048 128.24 215.224 128.808 215.576 129.224C215.944 129.64 216.432 129.976 217.04 130.232C217.648 130.472 218.304 130.68 219.008 130.856C219.728 131.032 220.44 131.216 221.144 131.408C221.864 131.6 222.52 131.856 223.112 132.176C223.72 132.48 224.2 132.896 224.552 133.424C224.92 133.952 225.104 134.632 225.104 135.464C225.104 136.408 224.856 137.232 224.36 137.936C223.864 138.64 223.176 139.192 222.296 139.592C221.416 139.992 220.408 140.192 219.272 140.192ZM218.768 142.784V139.928L218.792 139.184V123.632L218.768 122.984V120.128H220.112V122.984L220.088 123.632V139.184L220.112 139.928V142.784H218.768ZM230.975 140H229.367L237.815 123.464L238.007 124.184H228.095V122.912H239.087V124.016L230.975 140ZM247.885 140.168C246.797 140.168 245.757 139.976 244.765 139.592C243.773 139.208 242.925 138.672 242.221 137.984L242.845 136.808C243.629 137.496 244.429 138.016 245.245 138.368C246.077 138.704 246.957 138.872 247.885 138.872C249.133 138.872 250.093 138.576 250.765 137.984C251.453 137.376 251.797 136.512 251.797 135.392C251.797 134.24 251.437 133.384 250.717 132.824C250.013 132.248 248.973 131.96 247.597 131.96H245.749V130.664H247.213C248.557 130.664 249.589 130.352 250.309 129.728C251.045 129.104 251.413 128.224 251.413 127.088C251.413 126.112 251.117 125.36 250.525 124.832C249.933 124.288 249.101 124.016 248.029 124.016C247.149 124.016 246.309 124.192 245.509 124.544C244.709 124.88 243.909 125.392 243.109 126.08L242.485 124.904C243.173 124.216 244.005 123.68 244.981 123.296C245.973 122.912 246.997 122.72 248.053 122.72C249.045 122.72 249.909 122.896 250.645 123.248C251.381 123.6 251.941 124.104 252.325 124.76C252.725 125.4 252.925 126.168 252.925 127.064C252.909 128.12 252.621 129.032 252.061 129.8C251.517 130.568 250.765 131.08 249.805 131.336L249.709 131.096C250.877 131.336 251.765 131.824 252.373 132.56C252.981 133.28 253.285 134.224 253.285 135.392C253.285 136.864 252.797 138.032 251.821 138.896C250.845 139.744 249.533 140.168 247.885 140.168ZM262.756 140.168C261.732 140.168 260.724 139.976 259.732 139.592C258.74 139.208 257.892 138.672 257.188 137.984L257.812 136.808C258.596 137.48 259.396 137.992 260.212 138.344C261.028 138.696 261.876 138.872 262.756 138.872C264.004 138.872 264.988 138.504 265.708 137.768C266.444 137.016 266.812 136.016 266.812 134.768C266.812 133.968 266.652 133.264 266.332 132.656C266.012 132.032 265.556 131.552 264.964 131.216C264.388 130.864 263.7 130.688 262.9 130.688C262.004 130.688 261.22 130.872 260.548 131.24C259.876 131.592 259.292 132.144 258.796 132.896H257.644V122.912H267.676V124.184H259.132V131.696L258.652 131.624C259.1 130.92 259.7 130.368 260.452 129.968C261.204 129.568 262.052 129.368 262.996 129.368C264.1 129.368 265.044 129.6 265.828 130.064C266.628 130.512 267.236 131.144 267.652 131.96C268.084 132.776 268.3 133.712 268.3 134.768C268.3 135.824 268.076 136.76 267.628 137.576C267.18 138.392 266.54 139.032 265.708 139.496C264.876 139.944 263.892 140.168 262.756 140.168ZM271.987 142.568L271.243 141.968C271.627 141.536 271.875 141.144 271.987 140.792C272.099 140.456 272.155 140.104 272.155 139.736L272.659 140H271.219V137.912H273.259V139.472C273.259 140.032 273.163 140.568 272.971 141.08C272.795 141.592 272.467 142.088 271.987 142.568ZM282.083 140.192C280.163 140.192 278.707 139.456 277.715 137.984C276.723 136.496 276.227 134.32 276.227 131.456C276.227 128.576 276.715 126.4 277.691 124.928C278.683 123.456 280.147 122.72 282.083 122.72C284.019 122.72 285.475 123.456 286.451 124.928C287.443 126.4 287.939 128.568 287.939 131.432C287.939 134.296 287.443 136.472 286.451 137.96C285.459 139.448 284.003 140.192 282.083 140.192ZM282.083 138.872C283.555 138.872 284.643 138.272 285.347 137.072C286.067 135.856 286.427 133.976 286.427 131.432C286.427 128.888 286.075 127.024 285.371 125.84C284.667 124.64 283.571 124.04 282.083 124.04C280.611 124.04 279.515 124.64 278.795 125.84C278.091 127.04 277.739 128.904 277.739 131.432C277.739 133.96 278.091 135.832 278.795 137.048C279.515 138.264 280.611 138.872 282.083 138.872ZM296.473 140.192C294.553 140.192 293.097 139.456 292.105 137.984C291.113 136.496 290.617 134.32 290.617 131.456C290.617 128.576 291.105 126.4 292.081 124.928C293.073 123.456 294.537 122.72 296.473 122.72C298.409 122.72 299.865 123.456 300.841 124.928C301.833 126.4 302.329 128.568 302.329 131.432C302.329 134.296 301.833 136.472 300.841 137.96C299.849 139.448 298.393 140.192 296.473 140.192ZM296.473 138.872C297.945 138.872 299.033 138.272 299.737 137.072C300.457 135.856 300.817 133.976 300.817 131.432C300.817 128.888 300.465 127.024 299.761 125.84C299.057 124.64 297.961 124.04 296.473 124.04C295.001 124.04 293.905 124.64 293.185 125.84C292.481 127.04 292.129 128.904 292.129 131.432C292.129 133.96 292.481 135.832 293.185 137.048C293.905 138.264 295.001 138.872 296.473 138.872ZM310.864 140.192C308.944 140.192 307.488 139.456 306.496 137.984C305.504 136.496 305.008 134.32 305.008 131.456C305.008 128.576 305.496 126.4 306.472 124.928C307.464 123.456 308.928 122.72 310.864 122.72C312.8 122.72 314.256 123.456 315.232 124.928C316.224 126.4 316.72 128.568 316.72 131.432C316.72 134.296 316.224 136.472 315.232 137.96C314.24 139.448 312.784 140.192 310.864 140.192ZM310.864 138.872C312.336 138.872 313.424 138.272 314.128 137.072C314.848 135.856 315.208 133.976 315.208 131.432C315.208 128.888 314.856 127.024 314.152 125.84C313.448 124.64 312.352 124.04 310.864 124.04C309.392 124.04 308.296 124.64 307.576 125.84C306.872 127.04 306.52 128.904 306.52 131.432C306.52 133.96 306.872 135.832 307.576 137.048C308.296 138.264 309.392 138.872 310.864 138.872Z" fill="#235EE7"/>
  <path d="M217.432 112.112C216.489 112.112 215.673 111.907 214.982 111.496C214.301 111.085 213.773 110.497 213.4 109.732C213.027 108.967 212.84 108.061 212.84 107.016C212.84 105.961 213.022 105.056 213.386 104.3C213.759 103.535 214.287 102.947 214.968 102.536C215.659 102.125 216.48 101.92 217.432 101.92C218.375 101.92 219.187 102.125 219.868 102.536C220.559 102.947 221.086 103.535 221.45 104.3C221.823 105.056 222.01 105.957 222.01 107.002C222.01 108.057 221.823 108.967 221.45 109.732C221.077 110.497 220.549 111.085 219.868 111.496C219.187 111.907 218.375 112.112 217.432 112.112ZM217.432 111.034C218.449 111.034 219.243 110.689 219.812 109.998C220.391 109.298 220.68 108.299 220.68 107.002C220.68 105.705 220.391 104.715 219.812 104.034C219.243 103.343 218.449 102.998 217.432 102.998C216.405 102.998 215.603 103.343 215.024 104.034C214.455 104.725 214.17 105.714 214.17 107.002C214.17 108.29 214.455 109.284 215.024 109.984C215.603 110.684 216.405 111.034 217.432 111.034ZM222.953 105.938V104.958H227.573V105.938H222.953ZM227.545 110.894V111.958C227.387 112.005 227.223 112.037 227.055 112.056C226.897 112.084 226.724 112.098 226.537 112.098C225.847 112.098 225.301 111.902 224.899 111.51C224.507 111.118 224.311 110.539 224.311 109.774V103.166L225.585 102.718V109.634C225.585 109.998 225.637 110.283 225.739 110.488C225.851 110.684 225.996 110.824 226.173 110.908C226.36 110.983 226.57 111.02 226.803 111.02C226.934 111.02 227.055 111.011 227.167 110.992C227.279 110.973 227.405 110.941 227.545 110.894ZM228.923 112V101.696H230.197V106.386L230.001 106.484C230.207 105.933 230.533 105.513 230.981 105.224C231.439 104.925 231.961 104.776 232.549 104.776C234.239 104.776 235.083 105.714 235.083 107.59V112H233.809V107.66C233.809 107.025 233.683 106.563 233.431 106.274C233.189 105.975 232.797 105.826 232.255 105.826C231.63 105.826 231.131 106.022 230.757 106.414C230.384 106.797 230.197 107.315 230.197 107.968V112H228.923ZM242.992 111.174C242.684 111.463 242.287 111.692 241.802 111.86C241.316 112.019 240.822 112.098 240.318 112.098C239.58 112.098 238.946 111.953 238.414 111.664C237.882 111.375 237.471 110.959 237.182 110.418C236.892 109.867 236.748 109.214 236.748 108.458C236.748 107.73 236.888 107.091 237.168 106.54C237.457 105.989 237.854 105.56 238.358 105.252C238.862 104.935 239.44 104.776 240.094 104.776C240.728 104.776 241.27 104.916 241.718 105.196C242.175 105.476 242.52 105.877 242.754 106.4C242.996 106.913 243.118 107.529 243.118 108.248V108.472H237.868V107.688H242.39L241.998 108.192C242.016 107.399 241.862 106.792 241.536 106.372C241.209 105.952 240.733 105.742 240.108 105.742C239.454 105.742 238.941 105.975 238.568 106.442C238.204 106.899 238.022 107.543 238.022 108.374C238.022 109.27 238.218 109.947 238.61 110.404C239.002 110.852 239.58 111.076 240.346 111.076C240.756 111.076 241.148 111.011 241.522 110.88C241.895 110.74 242.25 110.535 242.586 110.264L242.992 111.174ZM244.796 112V106.932C244.796 106.605 244.787 106.279 244.768 105.952C244.759 105.616 244.731 105.285 244.684 104.958H245.888L246.042 106.708L245.888 106.652C246.01 106.036 246.285 105.574 246.714 105.266C247.153 104.949 247.643 104.79 248.184 104.79C248.315 104.79 248.432 104.799 248.534 104.818C248.646 104.827 248.749 104.846 248.842 104.874L248.828 106.036C248.595 105.952 248.334 105.91 248.044 105.91C247.568 105.91 247.186 106.013 246.896 106.218C246.607 106.423 246.397 106.685 246.266 107.002C246.136 107.319 246.07 107.66 246.07 108.024V112H244.796ZM254.118 112H252.788L257.198 102.032H258.304L262.728 112H261.412L257.548 102.998H257.982L254.118 112ZM254.678 109.494L255.14 108.43H260.348L260.81 109.494H254.678ZM266.318 112.098C265.114 112.098 264.157 111.795 263.448 111.188L263.854 110.264C264.227 110.553 264.615 110.768 265.016 110.908C265.427 111.039 265.875 111.104 266.36 111.104C266.864 111.104 267.247 111.02 267.508 110.852C267.779 110.675 267.914 110.423 267.914 110.096C267.914 109.835 267.821 109.629 267.634 109.48C267.457 109.321 267.158 109.191 266.738 109.088L265.562 108.808C264.955 108.677 264.489 108.444 264.162 108.108C263.845 107.772 263.686 107.366 263.686 106.89C263.686 106.479 263.798 106.115 264.022 105.798C264.255 105.481 264.577 105.233 264.988 105.056C265.399 104.869 265.884 104.776 266.444 104.776C266.939 104.776 267.405 104.855 267.844 105.014C268.292 105.173 268.67 105.401 268.978 105.7L268.572 106.61C268.236 106.33 267.891 106.125 267.536 105.994C267.181 105.854 266.813 105.784 266.43 105.784C265.954 105.784 265.581 105.877 265.31 106.064C265.049 106.251 264.918 106.503 264.918 106.82C264.918 107.091 265.002 107.305 265.17 107.464C265.338 107.623 265.604 107.749 265.968 107.842L267.158 108.136C267.83 108.276 268.325 108.509 268.642 108.836C268.959 109.153 269.118 109.564 269.118 110.068C269.118 110.684 268.866 111.179 268.362 111.552C267.858 111.916 267.177 112.098 266.318 112.098ZM273.277 112.098C272.073 112.098 271.116 111.795 270.407 111.188L270.813 110.264C271.186 110.553 271.574 110.768 271.975 110.908C272.386 111.039 272.834 111.104 273.319 111.104C273.823 111.104 274.206 111.02 274.467 110.852C274.738 110.675 274.873 110.423 274.873 110.096C274.873 109.835 274.78 109.629 274.593 109.48C274.416 109.321 274.117 109.191 273.697 109.088L272.521 108.808C271.914 108.677 271.448 108.444 271.121 108.108C270.804 107.772 270.645 107.366 270.645 106.89C270.645 106.479 270.757 106.115 270.981 105.798C271.214 105.481 271.536 105.233 271.947 105.056C272.358 104.869 272.843 104.776 273.403 104.776C273.898 104.776 274.364 104.855 274.803 105.014C275.251 105.173 275.629 105.401 275.937 105.7L275.531 106.61C275.195 106.33 274.85 106.125 274.495 105.994C274.14 105.854 273.772 105.784 273.389 105.784C272.913 105.784 272.54 105.877 272.269 106.064C272.008 106.251 271.877 106.503 271.877 106.82C271.877 107.091 271.961 107.305 272.129 107.464C272.297 107.623 272.563 107.749 272.927 107.842L274.117 108.136C274.789 108.276 275.284 108.509 275.601 108.836C275.918 109.153 276.077 109.564 276.077 110.068C276.077 110.684 275.825 111.179 275.321 111.552C274.817 111.916 274.136 112.098 273.277 112.098ZM283.638 111.174C283.33 111.463 282.933 111.692 282.448 111.86C281.963 112.019 281.468 112.098 280.964 112.098C280.227 112.098 279.592 111.953 279.06 111.664C278.528 111.375 278.117 110.959 277.828 110.418C277.539 109.867 277.394 109.214 277.394 108.458C277.394 107.73 277.534 107.091 277.814 106.54C278.103 105.989 278.5 105.56 279.004 105.252C279.508 104.935 280.087 104.776 280.74 104.776C281.375 104.776 281.916 104.916 282.364 105.196C282.821 105.476 283.167 105.877 283.4 106.4C283.643 106.913 283.764 107.529 283.764 108.248V108.472H278.514V107.688H283.036L282.644 108.192C282.663 107.399 282.509 106.792 282.182 106.372C281.855 105.952 281.379 105.742 280.754 105.742C280.101 105.742 279.587 105.975 279.214 106.442C278.85 106.899 278.668 107.543 278.668 108.374C278.668 109.27 278.864 109.947 279.256 110.404C279.648 110.852 280.227 111.076 280.992 111.076C281.403 111.076 281.795 111.011 282.168 110.88C282.541 110.74 282.896 110.535 283.232 110.264L283.638 111.174ZM284.422 105.938V104.958H289.042V105.938H284.422ZM289.014 110.894V111.958C288.856 112.005 288.692 112.037 288.524 112.056C288.366 112.084 288.193 112.098 288.006 112.098C287.316 112.098 286.77 111.902 286.368 111.51C285.976 111.118 285.78 110.539 285.78 109.774V103.166L287.054 102.718V109.634C287.054 109.998 287.106 110.283 287.208 110.488C287.32 110.684 287.465 110.824 287.642 110.908C287.829 110.983 288.039 111.02 288.272 111.02C288.403 111.02 288.524 111.011 288.636 110.992C288.748 110.973 288.874 110.941 289.014 110.894ZM292.814 112.098C291.61 112.098 290.653 111.795 289.944 111.188L290.35 110.264C290.723 110.553 291.111 110.768 291.512 110.908C291.923 111.039 292.371 111.104 292.856 111.104C293.36 111.104 293.743 111.02 294.004 110.852C294.275 110.675 294.41 110.423 294.41 110.096C294.41 109.835 294.317 109.629 294.13 109.48C293.953 109.321 293.654 109.191 293.234 109.088L292.058 108.808C291.451 108.677 290.985 108.444 290.658 108.108C290.341 107.772 290.182 107.366 290.182 106.89C290.182 106.479 290.294 106.115 290.518 105.798C290.751 105.481 291.073 105.233 291.484 105.056C291.895 104.869 292.38 104.776 292.94 104.776C293.435 104.776 293.901 104.855 294.34 105.014C294.788 105.173 295.166 105.401 295.474 105.7L295.068 106.61C294.732 106.33 294.387 106.125 294.032 105.994C293.677 105.854 293.309 105.784 292.926 105.784C292.45 105.784 292.077 105.877 291.806 106.064C291.545 106.251 291.414 106.503 291.414 106.82C291.414 107.091 291.498 107.305 291.666 107.464C291.834 107.623 292.1 107.749 292.464 107.842L293.654 108.136C294.326 108.276 294.821 108.509 295.138 108.836C295.455 109.153 295.614 109.564 295.614 110.068C295.614 110.684 295.362 111.179 294.858 111.552C294.354 111.916 293.673 112.098 292.814 112.098Z" fill="#235EE7"/>
  <path d="M55.272 140.192C54.088 140.192 52.968 140 51.912 139.616C50.872 139.216 49.968 138.64 49.2 137.888L49.8 136.712C50.664 137.48 51.528 138.032 52.392 138.368C53.256 138.704 54.216 138.872 55.272 138.872C56.632 138.872 57.688 138.576 58.44 137.984C59.208 137.376 59.592 136.544 59.592 135.488C59.592 134.832 59.408 134.32 59.04 133.952C58.688 133.568 58.208 133.264 57.6 133.04C57.008 132.816 56.352 132.624 55.632 132.464C54.928 132.288 54.216 132.096 53.496 131.888C52.776 131.68 52.112 131.408 51.504 131.072C50.912 130.736 50.432 130.288 50.064 129.728C49.712 129.168 49.536 128.44 49.536 127.544C49.536 126.6 49.784 125.768 50.28 125.048C50.776 124.312 51.464 123.744 52.344 123.344C53.224 122.928 54.224 122.72 55.344 122.72C56.064 122.72 56.76 122.808 57.432 122.984C58.12 123.16 58.76 123.416 59.352 123.752C59.96 124.072 60.496 124.472 60.96 124.952L60.36 126.128C58.984 124.736 57.312 124.04 55.344 124.04C54.016 124.04 52.968 124.352 52.2 124.976C51.432 125.6 51.048 126.448 51.048 127.52C51.048 128.24 51.224 128.808 51.576 129.224C51.944 129.64 52.432 129.976 53.04 130.232C53.648 130.472 54.304 130.68 55.008 130.856C55.728 131.032 56.44 131.216 57.144 131.408C57.864 131.6 58.52 131.856 59.112 132.176C59.72 132.48 60.2 132.896 60.552 133.424C60.92 133.952 61.104 134.632 61.104 135.464C61.104 136.408 60.856 137.232 60.36 137.936C59.864 138.64 59.176 139.192 58.296 139.592C57.416 139.992 56.408 140.192 55.272 140.192ZM54.768 142.784V139.928L54.792 139.184V123.632L54.768 122.984V120.128H56.112V122.984L56.088 123.632V139.184L56.112 139.928V142.784H54.768ZM64.5026 140V138.872L70.5746 132.104C71.4226 131.128 72.0386 130.264 72.4226 129.512C72.8226 128.744 73.0226 127.968 73.0226 127.184C73.0226 126.176 72.7266 125.4 72.1346 124.856C71.5586 124.296 70.7266 124.016 69.6386 124.016C68.7746 124.016 67.9346 124.192 67.1186 124.544C66.3186 124.88 65.5186 125.392 64.7186 126.08L64.0946 124.904C64.7666 124.248 65.6066 123.72 66.6146 123.32C67.6226 122.92 68.6306 122.72 69.6386 122.72C70.6466 122.72 71.5106 122.896 72.2306 123.248C72.9666 123.6 73.5346 124.112 73.9346 124.784C74.3346 125.44 74.5346 126.224 74.5346 127.136C74.5346 128.112 74.3026 129.064 73.8386 129.992C73.3906 130.904 72.6546 131.936 71.6306 133.088L65.6066 139.664L65.5826 138.728H75.2786V140H64.5026ZM83.8853 140.168C82.7973 140.168 81.7573 139.976 80.7653 139.592C79.7733 139.208 78.9253 138.672 78.2213 137.984L78.8453 136.808C79.6293 137.496 80.4293 138.016 81.2453 138.368C82.0773 138.704 82.9573 138.872 83.8853 138.872C85.1333 138.872 86.0933 138.576 86.7653 137.984C87.4533 137.376 87.7973 136.512 87.7973 135.392C87.7973 134.24 87.4373 133.384 86.7173 132.824C86.0133 132.248 84.9733 131.96 83.5973 131.96H81.7493V130.664H83.2133C84.5573 130.664 85.5893 130.352 86.3093 129.728C87.0453 129.104 87.4133 128.224 87.4133 127.088C87.4133 126.112 87.1173 125.36 86.5253 124.832C85.9333 124.288 85.1013 124.016 84.0293 124.016C83.1493 124.016 82.3093 124.192 81.5093 124.544C80.7093 124.88 79.9093 125.392 79.1093 126.08L78.4853 124.904C79.1733 124.216 80.0053 123.68 80.9813 123.296C81.9733 122.912 82.9973 122.72 84.0533 122.72C85.0453 122.72 85.9093 122.896 86.6453 123.248C87.3813 123.6 87.9413 124.104 88.3253 124.76C88.7253 125.4 88.9253 126.168 88.9253 127.064C88.9093 128.12 88.6213 129.032 88.0613 129.8C87.5173 130.568 86.7653 131.08 85.8053 131.336L85.7093 131.096C86.8773 131.336 87.7653 131.824 88.3733 132.56C88.9813 133.28 89.2853 134.224 89.2853 135.392C89.2853 136.864 88.7973 138.032 87.8213 138.896C86.8453 139.744 85.5333 140.168 83.8853 140.168ZM98.7559 140.168C97.7319 140.168 96.7239 139.976 95.7319 139.592C94.7399 139.208 93.8919 138.672 93.1879 137.984L93.8119 136.808C94.5959 137.48 95.3959 137.992 96.2119 138.344C97.0279 138.696 97.8759 138.872 98.7559 138.872C100.004 138.872 100.988 138.504 101.708 137.768C102.444 137.016 102.812 136.016 102.812 134.768C102.812 133.968 102.652 133.264 102.332 132.656C102.012 132.032 101.556 131.552 100.964 131.216C100.388 130.864 99.6999 130.688 98.8999 130.688C98.0039 130.688 97.2199 130.872 96.5479 131.24C95.8759 131.592 95.2919 132.144 94.7959 132.896H93.6439V122.912H103.676V124.184H95.1319V131.696L94.6519 131.624C95.0999 130.92 95.6999 130.368 96.4519 129.968C97.2039 129.568 98.0519 129.368 98.9959 129.368C100.1 129.368 101.044 129.6 101.828 130.064C102.628 130.512 103.236 131.144 103.652 131.96C104.084 132.776 104.3 133.712 104.3 134.768C104.3 135.824 104.076 136.76 103.628 137.576C103.18 138.392 102.54 139.032 101.708 139.496C100.876 139.944 99.8919 140.168 98.7559 140.168ZM107.987 142.568L107.243 141.968C107.627 141.536 107.875 141.144 107.987 140.792C108.099 140.456 108.155 140.104 108.155 139.736L108.659 140H107.219V137.912H109.259V139.472C109.259 140.032 109.163 140.568 108.971 141.08C108.795 141.592 108.467 142.088 107.987 142.568ZM118.083 140.192C116.163 140.192 114.707 139.456 113.715 137.984C112.723 136.496 112.227 134.32 112.227 131.456C112.227 128.576 112.715 126.4 113.691 124.928C114.683 123.456 116.147 122.72 118.083 122.72C120.019 122.72 121.475 123.456 122.451 124.928C123.443 126.4 123.939 128.568 123.939 131.432C123.939 134.296 123.443 136.472 122.451 137.96C121.459 139.448 120.003 140.192 118.083 140.192ZM118.083 138.872C119.555 138.872 120.643 138.272 121.347 137.072C122.067 135.856 122.427 133.976 122.427 131.432C122.427 128.888 122.075 127.024 121.371 125.84C120.667 124.64 119.571 124.04 118.083 124.04C116.611 124.04 115.515 124.64 114.795 125.84C114.091 127.04 113.739 128.904 113.739 131.432C113.739 133.96 114.091 135.832 114.795 137.048C115.515 138.264 116.611 138.872 118.083 138.872ZM132.473 140.192C130.553 140.192 129.097 139.456 128.105 137.984C127.113 136.496 126.617 134.32 126.617 131.456C126.617 128.576 127.105 126.4 128.081 124.928C129.073 123.456 130.537 122.72 132.473 122.72C134.409 122.72 135.865 123.456 136.841 124.928C137.833 126.4 138.329 128.568 138.329 131.432C138.329 134.296 137.833 136.472 136.841 137.96C135.849 139.448 134.393 140.192 132.473 140.192ZM132.473 138.872C133.945 138.872 135.033 138.272 135.737 137.072C136.457 135.856 136.817 133.976 136.817 131.432C136.817 128.888 136.465 127.024 135.761 125.84C135.057 124.64 133.961 124.04 132.473 124.04C131.001 124.04 129.905 124.64 129.185 125.84C128.481 127.04 128.129 128.904 128.129 131.432C128.129 133.96 128.481 135.832 129.185 137.048C129.905 138.264 131.001 138.872 132.473 138.872ZM146.864 140.192C144.944 140.192 143.488 139.456 142.496 137.984C141.504 136.496 141.008 134.32 141.008 131.456C141.008 128.576 141.496 126.4 142.472 124.928C143.464 123.456 144.928 122.72 146.864 122.72C148.8 122.72 150.256 123.456 151.232 124.928C152.224 126.4 152.72 128.568 152.72 131.432C152.72 134.296 152.224 136.472 151.232 137.96C150.24 139.448 148.784 140.192 146.864 140.192ZM146.864 138.872C148.336 138.872 149.424 138.272 150.128 137.072C150.848 135.856 151.208 133.976 151.208 131.432C151.208 128.888 150.856 127.024 150.152 125.84C149.448 124.64 148.352 124.04 146.864 124.04C145.392 124.04 144.296 124.64 143.576 125.84C142.872 127.04 142.52 128.904 142.52 131.432C142.52 133.96 142.872 135.832 143.576 137.048C144.296 138.264 145.392 138.872 146.864 138.872Z" fill="#29CFD6"/>
  <path d="M49.204 112V102.032H50.492V112H49.204ZM52.7554 112V106.932C52.7554 106.605 52.7461 106.279 52.7274 105.952C52.7181 105.616 52.6901 105.285 52.6434 104.958H53.8474L53.9734 106.4L53.8334 106.484C54.0387 105.933 54.3654 105.513 54.8134 105.224C55.2707 104.925 55.7934 104.776 56.3814 104.776C58.0707 104.776 58.9154 105.714 58.9154 107.59V112H57.6414V107.66C57.6414 107.025 57.5154 106.563 57.2634 106.274C57.0207 105.975 56.6287 105.826 56.0874 105.826C55.4621 105.826 54.9627 106.022 54.5894 106.414C54.2161 106.797 54.0294 107.315 54.0294 107.968V112H52.7554ZM63.0715 112L60.0615 104.972H61.3915L63.8695 111.02H63.5195L66.0255 104.972H67.2995L64.2475 112H63.0715ZM74.22 111.174C73.912 111.463 73.5154 111.692 73.03 111.86C72.5447 112.019 72.05 112.098 71.546 112.098C70.8087 112.098 70.174 111.953 69.642 111.664C69.11 111.375 68.6994 110.959 68.41 110.418C68.1207 109.867 67.976 109.214 67.976 108.458C67.976 107.73 68.116 107.091 68.396 106.54C68.6854 105.989 69.082 105.56 69.586 105.252C70.09 104.935 70.6687 104.776 71.322 104.776C71.9567 104.776 72.498 104.916 72.946 105.196C73.4034 105.476 73.7487 105.877 73.982 106.4C74.2247 106.913 74.346 107.529 74.346 108.248V108.472H69.096V107.688H73.618L73.226 108.192C73.2447 107.399 73.0907 106.792 72.764 106.372C72.4374 105.952 71.9614 105.742 71.336 105.742C70.6827 105.742 70.1694 105.975 69.796 106.442C69.432 106.899 69.25 107.543 69.25 108.374C69.25 109.27 69.446 109.947 69.838 110.404C70.23 110.852 70.8087 111.076 71.574 111.076C71.9847 111.076 72.3767 111.011 72.75 110.88C73.1234 110.74 73.478 110.535 73.814 110.264L74.22 111.174ZM78.4469 112.098C77.2429 112.098 76.2863 111.795 75.5769 111.188L75.9829 110.264C76.3563 110.553 76.7436 110.768 77.1449 110.908C77.5556 111.039 78.0036 111.104 78.4889 111.104C78.9929 111.104 79.3756 111.02 79.6369 110.852C79.9076 110.675 80.0429 110.423 80.0429 110.096C80.0429 109.835 79.9496 109.629 79.7629 109.48C79.5856 109.321 79.2869 109.191 78.8669 109.088L77.6909 108.808C77.0843 108.677 76.6176 108.444 76.2909 108.108C75.9736 107.772 75.8149 107.366 75.8149 106.89C75.8149 106.479 75.9269 106.115 76.1509 105.798C76.3843 105.481 76.7063 105.233 77.1169 105.056C77.5276 104.869 78.0129 104.776 78.5729 104.776C79.0676 104.776 79.5343 104.855 79.9729 105.014C80.4209 105.173 80.7989 105.401 81.1069 105.7L80.7009 106.61C80.3649 106.33 80.0196 106.125 79.6649 105.994C79.3103 105.854 78.9416 105.784 78.5589 105.784C78.0829 105.784 77.7096 105.877 77.4389 106.064C77.1776 106.251 77.0469 106.503 77.0469 106.82C77.0469 107.091 77.1309 107.305 77.2989 107.464C77.4669 107.623 77.7329 107.749 78.0969 107.842L79.2869 108.136C79.9589 108.276 80.4536 108.509 80.7709 108.836C81.0883 109.153 81.2469 109.564 81.2469 110.068C81.2469 110.684 80.9949 111.179 80.4909 111.552C79.9869 111.916 79.3056 112.098 78.4469 112.098ZM81.9496 105.938V104.958H86.5696V105.938H81.9496ZM86.5416 110.894V111.958C86.3829 112.005 86.2196 112.037 86.0516 112.056C85.8929 112.084 85.7202 112.098 85.5336 112.098C84.8429 112.098 84.2969 111.902 83.8956 111.51C83.5036 111.118 83.3076 110.539 83.3076 109.774V103.166L84.5816 102.718V109.634C84.5816 109.998 84.6329 110.283 84.7356 110.488C84.8476 110.684 84.9922 110.824 85.1696 110.908C85.3562 110.983 85.5662 111.02 85.7996 111.02C85.9302 111.02 86.0516 111.011 86.1636 110.992C86.2756 110.973 86.4016 110.941 86.5416 110.894ZM87.9195 112V106.932C87.9195 106.605 87.9101 106.279 87.8915 105.952C87.8821 105.616 87.8541 105.285 87.8075 104.958H89.0115L89.1375 106.4L88.9975 106.47C89.1655 105.929 89.4548 105.513 89.8655 105.224C90.2855 104.925 90.7801 104.776 91.3495 104.776C92.0308 104.776 92.5581 104.944 92.9315 105.28C93.3141 105.616 93.5568 106.129 93.6595 106.82L93.3235 106.61C93.4821 106.05 93.7855 105.607 94.2335 105.28C94.6815 104.944 95.2181 104.776 95.8435 104.776C96.6275 104.776 97.2155 105.009 97.6075 105.476C97.9995 105.943 98.1955 106.647 98.1955 107.59V112H96.9215V107.646C96.9215 107.021 96.8095 106.563 96.5855 106.274C96.3708 105.975 96.0208 105.826 95.5355 105.826C94.9661 105.826 94.5181 106.022 94.1915 106.414C93.8648 106.797 93.7015 107.324 93.7015 107.996V112H92.4275V107.646C92.4275 107.021 92.3155 106.563 92.0915 106.274C91.8675 105.975 91.5128 105.826 91.0275 105.826C90.4488 105.826 89.9961 106.022 89.6695 106.414C89.3521 106.797 89.1935 107.324 89.1935 107.996V112H87.9195ZM106.117 111.174C105.809 111.463 105.412 111.692 104.927 111.86C104.441 112.019 103.947 112.098 103.443 112.098C102.705 112.098 102.071 111.953 101.539 111.664C101.007 111.375 100.596 110.959 100.307 110.418C100.017 109.867 99.8725 109.214 99.8725 108.458C99.8725 107.73 100.013 107.091 100.293 106.54C100.582 105.989 100.979 105.56 101.483 105.252C101.987 104.935 102.565 104.776 103.219 104.776C103.853 104.776 104.395 104.916 104.843 105.196C105.3 105.476 105.645 105.877 105.879 106.4C106.121 106.913 106.243 107.529 106.243 108.248V108.472H100.993V107.688H105.515L105.123 108.192C105.141 107.399 104.987 106.792 104.661 106.372C104.334 105.952 103.858 105.742 103.233 105.742C102.579 105.742 102.066 105.975 101.693 106.442C101.329 106.899 101.147 107.543 101.147 108.374C101.147 109.27 101.343 109.947 101.735 110.404C102.127 110.852 102.705 111.076 103.471 111.076C103.881 111.076 104.273 111.011 104.647 110.88C105.02 110.74 105.375 110.535 105.711 110.264L106.117 111.174ZM107.921 112V106.932C107.921 106.605 107.912 106.279 107.893 105.952C107.884 105.616 107.856 105.285 107.809 104.958H109.013L109.139 106.4L108.999 106.484C109.205 105.933 109.531 105.513 109.979 105.224C110.437 104.925 110.959 104.776 111.547 104.776C113.237 104.776 114.081 105.714 114.081 107.59V112H112.807V107.66C112.807 107.025 112.681 106.563 112.429 106.274C112.187 105.975 111.795 105.826 111.253 105.826C110.628 105.826 110.129 106.022 109.755 106.414C109.382 106.797 109.195 107.315 109.195 107.968V112H107.921ZM115.2 105.938V104.958H119.82V105.938H115.2ZM119.792 110.894V111.958C119.633 112.005 119.47 112.037 119.302 112.056C119.143 112.084 118.97 112.098 118.784 112.098C118.093 112.098 117.547 111.902 117.146 111.51C116.754 111.118 116.558 110.539 116.558 109.774V103.166L117.832 102.718V109.634C117.832 109.998 117.883 110.283 117.986 110.488C118.098 110.684 118.242 110.824 118.42 110.908C118.606 110.983 118.816 111.02 119.05 111.02C119.18 111.02 119.302 111.011 119.414 110.992C119.526 110.973 119.652 110.941 119.792 110.894ZM125.323 112H123.993L128.403 102.032H129.509L133.933 112H132.617L128.753 102.998H129.187L125.323 112ZM125.883 109.494L126.345 108.43H131.553L132.015 109.494H125.883ZM137.523 112.098C136.319 112.098 135.362 111.795 134.653 111.188L135.059 110.264C135.432 110.553 135.82 110.768 136.221 110.908C136.632 111.039 137.08 111.104 137.565 111.104C138.069 111.104 138.452 111.02 138.713 110.852C138.984 110.675 139.119 110.423 139.119 110.096C139.119 109.835 139.026 109.629 138.839 109.48C138.662 109.321 138.363 109.191 137.943 109.088L136.767 108.808C136.16 108.677 135.694 108.444 135.367 108.108C135.05 107.772 134.891 107.366 134.891 106.89C134.891 106.479 135.003 106.115 135.227 105.798C135.46 105.481 135.782 105.233 136.193 105.056C136.604 104.869 137.089 104.776 137.649 104.776C138.144 104.776 138.61 104.855 139.049 105.014C139.497 105.173 139.875 105.401 140.183 105.7L139.777 106.61C139.441 106.33 139.096 106.125 138.741 105.994C138.386 105.854 138.018 105.784 137.635 105.784C137.159 105.784 136.786 105.877 136.515 106.064C136.254 106.251 136.123 106.503 136.123 106.82C136.123 107.091 136.207 107.305 136.375 107.464C136.543 107.623 136.809 107.749 137.173 107.842L138.363 108.136C139.035 108.276 139.53 108.509 139.847 108.836C140.164 109.153 140.323 109.564 140.323 110.068C140.323 110.684 140.071 111.179 139.567 111.552C139.063 111.916 138.382 112.098 137.523 112.098ZM144.482 112.098C143.278 112.098 142.321 111.795 141.612 111.188L142.018 110.264C142.391 110.553 142.779 110.768 143.18 110.908C143.591 111.039 144.039 111.104 144.524 111.104C145.028 111.104 145.411 111.02 145.672 110.852C145.943 110.675 146.078 110.423 146.078 110.096C146.078 109.835 145.985 109.629 145.798 109.48C145.621 109.321 145.322 109.191 144.902 109.088L143.726 108.808C143.119 108.677 142.653 108.444 142.326 108.108C142.009 107.772 141.85 107.366 141.85 106.89C141.85 106.479 141.962 106.115 142.186 105.798C142.419 105.481 142.741 105.233 143.152 105.056C143.563 104.869 144.048 104.776 144.608 104.776C145.103 104.776 145.569 104.855 146.008 105.014C146.456 105.173 146.834 105.401 147.142 105.7L146.736 106.61C146.4 106.33 146.055 106.125 145.7 105.994C145.345 105.854 144.977 105.784 144.594 105.784C144.118 105.784 143.745 105.877 143.474 106.064C143.213 106.251 143.082 106.503 143.082 106.82C143.082 107.091 143.166 107.305 143.334 107.464C143.502 107.623 143.768 107.749 144.132 107.842L145.322 108.136C145.994 108.276 146.489 108.509 146.806 108.836C147.123 109.153 147.282 109.564 147.282 110.068C147.282 110.684 147.03 111.179 146.526 111.552C146.022 111.916 145.341 112.098 144.482 112.098ZM154.843 111.174C154.535 111.463 154.138 111.692 153.653 111.86C153.168 112.019 152.673 112.098 152.169 112.098C151.432 112.098 150.797 111.953 150.265 111.664C149.733 111.375 149.322 110.959 149.033 110.418C148.744 109.867 148.599 109.214 148.599 108.458C148.599 107.73 148.739 107.091 149.019 106.54C149.308 105.989 149.705 105.56 150.209 105.252C150.713 104.935 151.292 104.776 151.945 104.776C152.58 104.776 153.121 104.916 153.569 105.196C154.026 105.476 154.372 105.877 154.605 106.4C154.848 106.913 154.969 107.529 154.969 108.248V108.472H149.719V107.688H154.241L153.849 108.192C153.868 107.399 153.714 106.792 153.387 106.372C153.06 105.952 152.584 105.742 151.959 105.742C151.306 105.742 150.792 105.975 150.419 106.442C150.055 106.899 149.873 107.543 149.873 108.374C149.873 109.27 150.069 109.947 150.461 110.404C150.853 110.852 151.432 111.076 152.197 111.076C152.608 111.076 153 111.011 153.373 110.88C153.746 110.74 154.101 110.535 154.437 110.264L154.843 111.174ZM155.627 105.938V104.958H160.247V105.938H155.627ZM160.219 110.894V111.958C160.061 112.005 159.897 112.037 159.729 112.056C159.571 112.084 159.398 112.098 159.211 112.098C158.521 112.098 157.975 111.902 157.573 111.51C157.181 111.118 156.985 110.539 156.985 109.774V103.166L158.259 102.718V109.634C158.259 109.998 158.311 110.283 158.413 110.488C158.525 110.684 158.67 110.824 158.847 110.908C159.034 110.983 159.244 111.02 159.477 111.02C159.608 111.02 159.729 111.011 159.841 110.992C159.953 110.973 160.079 110.941 160.219 110.894ZM164.019 112.098C162.815 112.098 161.859 111.795 161.149 111.188L161.555 110.264C161.929 110.553 162.316 110.768 162.717 110.908C163.128 111.039 163.576 111.104 164.061 111.104C164.565 111.104 164.948 111.02 165.209 110.852C165.48 110.675 165.615 110.423 165.615 110.096C165.615 109.835 165.522 109.629 165.335 109.48C165.158 109.321 164.859 109.191 164.439 109.088L163.263 108.808C162.657 108.677 162.19 108.444 161.863 108.108C161.546 107.772 161.387 107.366 161.387 106.89C161.387 106.479 161.499 106.115 161.723 105.798C161.957 105.481 162.279 105.233 162.689 105.056C163.1 104.869 163.585 104.776 164.145 104.776C164.64 104.776 165.107 104.855 165.545 105.014C165.993 105.173 166.371 105.401 166.679 105.7L166.273 106.61C165.937 106.33 165.592 106.125 165.237 105.994C164.883 105.854 164.514 105.784 164.131 105.784C163.655 105.784 163.282 105.877 163.011 106.064C162.75 106.251 162.619 106.503 162.619 106.82C162.619 107.091 162.703 107.305 162.871 107.464C163.039 107.623 163.305 107.749 163.669 107.842L164.859 108.136C165.531 108.276 166.026 108.509 166.343 108.836C166.661 109.153 166.819 109.564 166.819 110.068C166.819 110.684 166.567 111.179 166.063 111.552C165.559 111.916 164.878 112.098 164.019 112.098Z" fill="#29CFD6"/>
  <path d="M91.4 64V49.76H93.92V64H91.4ZM81.54 64V49.76H84.08V64H81.54ZM82.46 57.8V55.74H92.88V57.8H82.46ZM101.428 64.14C100.375 64.14 99.4616 63.9267 98.6883 63.5C97.9283 63.0733 97.3416 62.4733 96.9283 61.7C96.5149 60.9133 96.3083 59.98 96.3083 58.9C96.3083 57.8333 96.5149 56.9067 96.9283 56.12C97.3416 55.32 97.9283 54.7067 98.6883 54.28C99.4616 53.8533 100.375 53.64 101.428 53.64C102.455 53.64 103.348 53.8533 104.108 54.28C104.882 54.7067 105.475 55.32 105.888 56.12C106.315 56.9067 106.528 57.8333 106.528 58.9C106.528 59.98 106.315 60.9133 105.888 61.7C105.475 62.4733 104.882 63.0733 104.108 63.5C103.348 63.9267 102.455 64.14 101.428 64.14ZM101.428 62.22C102.255 62.22 102.888 61.9467 103.328 61.4C103.782 60.84 104.008 60.0067 104.008 58.9C104.008 57.8067 103.782 56.9867 103.328 56.44C102.888 55.88 102.255 55.6 101.428 55.6C100.588 55.6 99.9349 55.88 99.4683 56.44C99.0149 56.9867 98.7883 57.8067 98.7883 58.9C98.7883 60.0067 99.0149 60.84 99.4683 61.4C99.9216 61.9467 100.575 62.22 101.428 62.22ZM111.328 64L107.368 53.9H109.948L112.788 61.72H112.288L115.148 53.9H116.968L119.808 61.72H119.348L122.188 53.9H124.608L120.648 64H118.468L115.388 55.86H116.528L113.508 64H111.328ZM131.433 68.54L130.873 66.62C131.499 66.4867 132.019 66.3267 132.433 66.14C132.846 65.9667 133.186 65.74 133.453 65.46C133.733 65.18 133.966 64.82 134.153 64.38L134.873 62.74L135.513 61.82L138.753 53.9H141.233L136.553 64.68C136.166 65.56 135.719 66.26 135.213 66.78C134.706 67.3133 134.133 67.7133 133.493 67.98C132.866 68.2467 132.179 68.4333 131.433 68.54ZM134.933 64.66L130.272 53.9H132.893L136.073 61.82L134.933 64.66ZM146.956 64.14C145.902 64.14 144.989 63.9267 144.216 63.5C143.456 63.0733 142.869 62.4733 142.456 61.7C142.042 60.9133 141.836 59.98 141.836 58.9C141.836 57.8333 142.042 56.9067 142.456 56.12C142.869 55.32 143.456 54.7067 144.216 54.28C144.989 53.8533 145.902 53.64 146.956 53.64C147.982 53.64 148.876 53.8533 149.636 54.28C150.409 54.7067 151.002 55.32 151.416 56.12C151.842 56.9067 152.056 57.8333 152.056 58.9C152.056 59.98 151.842 60.9133 151.416 61.7C151.002 62.4733 150.409 63.0733 149.636 63.5C148.876 63.9267 147.982 64.14 146.956 64.14ZM146.956 62.22C147.782 62.22 148.416 61.9467 148.856 61.4C149.309 60.84 149.536 60.0067 149.536 58.9C149.536 57.8067 149.309 56.9867 148.856 56.44C148.416 55.88 147.782 55.6 146.956 55.6C146.116 55.6 145.462 55.88 144.996 56.44C144.542 56.9867 144.316 57.8067 144.316 58.9C144.316 60.0067 144.542 60.84 144.996 61.4C145.449 61.9467 146.102 62.22 146.956 62.22ZM157.852 64.14C156.612 64.14 155.678 63.8 155.052 63.12C154.438 62.4267 154.132 61.3867 154.132 60V53.9H156.632V60.02C156.632 60.7533 156.785 61.2933 157.092 61.64C157.398 61.9867 157.858 62.16 158.472 62.16C159.205 62.16 159.792 61.92 160.232 61.44C160.672 60.96 160.892 60.32 160.892 59.52V53.9H163.412V64H160.972V61.92L161.232 61.9C160.938 62.6333 160.498 63.1933 159.912 63.58C159.325 63.9533 158.638 64.14 157.852 64.14ZM176.154 64.14C175.101 64.14 174.188 63.9333 173.414 63.52C172.654 63.0933 172.068 62.4933 171.654 61.72C171.254 60.9333 171.054 60.0133 171.054 58.96C171.054 57.8933 171.268 56.96 171.694 56.16C172.121 55.36 172.728 54.74 173.514 54.3C174.301 53.86 175.221 53.64 176.274 53.64C176.981 53.64 177.668 53.7533 178.334 53.98C179.014 54.2067 179.568 54.52 179.994 54.92L179.274 56.68C178.848 56.3333 178.394 56.0733 177.914 55.9C177.434 55.7133 176.954 55.62 176.474 55.62C175.594 55.62 174.894 55.9 174.374 56.46C173.868 57.02 173.614 57.84 173.614 58.92C173.614 59.9867 173.868 60.8 174.374 61.36C174.881 61.92 175.588 62.2 176.494 62.2C176.961 62.2 177.434 62.1133 177.914 61.94C178.394 61.7533 178.848 61.48 179.274 61.12L179.994 62.88C179.554 63.28 178.988 63.5933 178.294 63.82C177.614 64.0333 176.901 64.14 176.154 64.14ZM186.253 64.14C185.199 64.14 184.286 63.9267 183.513 63.5C182.753 63.0733 182.166 62.4733 181.753 61.7C181.339 60.9133 181.133 59.98 181.133 58.9C181.133 57.8333 181.339 56.9067 181.753 56.12C182.166 55.32 182.753 54.7067 183.513 54.28C184.286 53.8533 185.199 53.64 186.253 53.64C187.279 53.64 188.173 53.8533 188.933 54.28C189.706 54.7067 190.299 55.32 190.713 56.12C191.139 56.9067 191.353 57.8333 191.353 58.9C191.353 59.98 191.139 60.9133 190.713 61.7C190.299 62.4733 189.706 63.0733 188.933 63.5C188.173 63.9267 187.279 64.14 186.253 64.14ZM186.253 62.22C187.079 62.22 187.713 61.9467 188.153 61.4C188.606 60.84 188.833 60.0067 188.833 58.9C188.833 57.8067 188.606 56.9867 188.153 56.44C187.713 55.88 187.079 55.6 186.253 55.6C185.413 55.6 184.759 55.88 184.293 56.44C183.839 56.9867 183.613 57.8067 183.613 58.9C183.613 60.0067 183.839 60.84 184.293 61.4C184.746 61.9467 185.399 62.22 186.253 62.22ZM193.488 64V56.76C193.488 56.2933 193.475 55.82 193.448 55.34C193.435 54.8467 193.395 54.3667 193.328 53.9H195.688L195.908 55.9L195.688 55.92C195.955 55.2 196.382 54.64 196.968 54.24C197.555 53.84 198.248 53.64 199.048 53.64C199.995 53.64 200.735 53.88 201.268 54.36C201.815 54.8267 202.168 55.5467 202.328 56.52L201.848 56.08C202.115 55.3467 202.568 54.76 203.208 54.32C203.848 53.8667 204.595 53.64 205.448 53.64C206.582 53.64 207.428 53.9867 207.988 54.68C208.548 55.36 208.828 56.4 208.828 57.8V64H206.328V57.88C206.328 57.1067 206.195 56.54 205.928 56.18C205.675 55.8067 205.248 55.62 204.648 55.62C203.955 55.62 203.408 55.8667 203.008 56.36C202.622 56.84 202.428 57.5067 202.428 58.36V64H199.928V57.88C199.928 57.1067 199.788 56.54 199.508 56.18C199.242 55.8067 198.815 55.62 198.228 55.62C197.522 55.62 196.968 55.8667 196.568 56.36C196.182 56.84 195.988 57.5067 195.988 58.36V64H193.488ZM211.477 68.32V56.76C211.477 56.2933 211.463 55.82 211.437 55.34C211.423 54.8467 211.383 54.3667 211.317 53.9H213.677L213.897 55.9L213.757 56.02C213.97 55.2733 214.39 54.6933 215.017 54.28C215.643 53.8533 216.383 53.64 217.237 53.64C218.117 53.64 218.89 53.8667 219.557 54.32C220.237 54.76 220.77 55.38 221.157 56.18C221.543 56.9667 221.737 57.8933 221.737 58.96C221.737 60.0133 221.543 60.9333 221.157 61.72C220.77 62.4933 220.243 63.0933 219.577 63.52C218.91 63.9333 218.13 64.14 217.237 64.14C216.383 64.14 215.643 63.94 215.017 63.54C214.39 63.1267 213.97 62.5467 213.757 61.8L213.977 61.48V68.32H211.477ZM216.597 62.22C217.423 62.22 218.063 61.94 218.517 61.38C218.97 60.8067 219.197 60 219.197 58.96C219.197 57.8933 218.97 57.0667 218.517 56.48C218.063 55.8933 217.423 55.6 216.597 55.6C215.743 55.6 215.09 55.8867 214.637 56.46C214.197 57.02 213.977 57.84 213.977 58.92C213.977 59.9733 214.197 60.7867 214.637 61.36C215.09 61.9333 215.743 62.22 216.597 62.22ZM227.819 64.14C226.939 64.14 226.159 63.9333 225.479 63.52C224.799 63.0933 224.272 62.4933 223.899 61.72C223.539 60.9333 223.359 60.0133 223.359 58.96C223.359 57.8933 223.546 56.9667 223.919 56.18C224.292 55.38 224.812 54.76 225.479 54.32C226.159 53.8667 226.939 53.64 227.819 53.64C228.672 53.64 229.412 53.8533 230.039 54.28C230.679 54.6933 231.112 55.2733 231.339 56.02L231.099 56.16V53.9H233.559V64H231.099V61.72L231.339 61.8C231.112 62.5467 230.679 63.1267 230.039 63.54C229.412 63.94 228.672 64.14 227.819 64.14ZM228.499 62.22C229.326 62.22 229.966 61.9333 230.419 61.36C230.872 60.7867 231.099 59.9733 231.099 58.92C231.099 57.84 230.872 57.02 230.419 56.46C229.966 55.8867 229.326 55.6 228.499 55.6C227.659 55.6 227.006 55.8933 226.539 56.48C226.072 57.0667 225.839 57.8933 225.839 58.96C225.839 60 226.072 60.8067 226.539 61.38C227.006 61.94 227.659 62.22 228.499 62.22ZM236.262 64V56.76C236.262 56.2933 236.249 55.82 236.222 55.34C236.209 54.8467 236.169 54.3667 236.102 53.9H238.462L238.742 56.5L238.462 56.36C238.635 55.4667 239.029 54.7933 239.642 54.34C240.255 53.8867 240.949 53.66 241.722 53.66C241.922 53.66 242.109 53.6733 242.282 53.7C242.455 53.7267 242.609 53.7667 242.742 53.82L242.702 56.1C242.289 55.9267 241.849 55.84 241.382 55.84C240.782 55.84 240.289 55.96 239.902 56.2C239.529 56.44 239.242 56.7667 239.042 57.18C238.855 57.58 238.762 58.0333 238.762 58.54V64H236.262ZM252.579 62.88C252.099 63.28 251.505 63.5933 250.799 63.82C250.105 64.0333 249.399 64.14 248.679 64.14C247.585 64.14 246.639 63.9333 245.839 63.52C245.052 63.1067 244.445 62.5067 244.019 61.72C243.592 60.9333 243.379 60 243.379 58.92C243.379 57.88 243.585 56.9667 243.999 56.18C244.412 55.38 244.985 54.76 245.719 54.32C246.452 53.8667 247.299 53.64 248.259 53.64C249.192 53.64 249.992 53.8467 250.659 54.26C251.325 54.66 251.839 55.24 252.199 56C252.572 56.76 252.759 57.66 252.759 58.7V59.08H245.579L245.599 57.74H251.279L250.599 58.42C250.612 57.4467 250.419 56.7067 250.019 56.2C249.632 55.6933 249.065 55.44 248.319 55.44C247.519 55.44 246.899 55.7267 246.459 56.3C246.019 56.86 245.799 57.6667 245.799 58.72C245.799 59.92 246.045 60.8067 246.539 61.38C247.032 61.94 247.779 62.22 248.779 62.22C249.325 62.22 249.859 62.1333 250.379 61.96C250.912 61.7733 251.405 61.5067 251.859 61.16L252.579 62.88Z" fill="#534CEA"/>
  <path d="M53 53.8422V60.0909M56.2143 55.1818V60.0909M59.5 57.6364V60.0909M63 52.7273V60.0909M50.5 47H65.5C66.3285 47 67 47.6716 67 48.5V63.5C67 64.3284 66.3285 65 65.5 65H50.5C49.6716 65 49 64.3284 49 63.5L49 48.5C49 47.6716 49.6716 47 50.5 47Z" stroke="#534CEA" stroke-width="1.5" stroke-linecap="round" stroke-linejoin="round"/>
  <defs>
    <filter id="filter0_d" x="0" y="0" width="391" height="316" filterUnits="userSpaceOnUse" color-interpolation-filters="sRGB">
      <feFlood flood-opacity="0" result="BackgroundImageFix"/>
      <feColorMatrix in="SourceAlpha" type="matrix" values="0 0 0 0 0 0 0 0 0 0 0 0 0 0 0 0 0 0 127 0"/>
      <feOffset dy="4"/>
      <feGaussianBlur stdDeviation="14"/>
      <feColorMatrix type="matrix" values="0 0 0 0 0.0313726 0 0 0 0 0.0941176 0 0 0 0 0.2 0 0 0 0.44 0"/>
      <feBlend mode="normal" in2="BackgroundImageFix" result="effect1_dropShadow"/>
      <feBlend mode="normal" in="SourceGraphic" in2="effect1_dropShadow" result="shape"/>
    </filter>
  </defs>
</svg>
